# MagicaVoxel @ Ephtracy

# group
g door frame

# material
mtllib door frame.mtl
usemtl palette

# normals
vn -1 0 0
vn 1 0 0
vn 0 0 1
vn 0 0 -1
vn 0 -1 0
vn 0 1 0

# texcoords
vt 0.615234 0.5
vt 0.619141 0.5
vt 0.904297 0.5

# verts
v -54 26 20
v -54 26 10
v -54 27 19
v -54 27 11
v -54 35 17
v -54 35 13
v -54 36 17
v -54 36 16
v -54 36 14
v -54 36 13
v -54 37 17
v -54 37 16
v -54 37 14
v -54 37 13
v -54 38 17
v -54 38 13
v -54 39 19
v -54 39 11
v -54 40 20
v -54 40 10
v -46 23 34
v -46 23 33
v -46 41 34
v -46 41 33
v -45 22 34
v -45 22 33
v -45 23 34
v -45 23 33
v -44 25 33
v -44 25 32
v -44 26 33
v -44 26 32
v -44 28 33
v -44 28 32
v -44 29 33
v -44 29 32
v -44 30 33
v -44 30 32
v -44 31 33
v -44 31 32
v -44 32 33
v -44 32 32
v -44 33 33
v -44 33 32
v -44 34 33
v -44 34 32
v -44 35 33
v -44 35 32
v -44 36 33
v -44 36 32
v -44 37 33
v -44 37 32
v -42 39 33
v -42 39 32
v -42 40 33
v -42 40 32
v -35 23 34
v -35 23 33
v -35 41 34
v -35 41 33
v -32 8 34
v -32 8 31
v -32 19 32
v -32 19 31
v -32 20 32
v -32 20 31
v -32 45 34
v -32 45 31
v -29 5 -45
v -29 5 -50
v -29 11 -45
v -29 11 -50
v -22 26 -48
v -22 26 -49
v -22 40 -48
v -22 40 -49
v -19 35 -48
v -19 35 -49
v -19 36 -48
v -19 36 -49
v -19 37 -48
v -19 37 -49
v -19 38 -48
v -19 38 -49
v -18 36 -48
v -18 36 -49
v -18 37 -48
v -18 37 -49
v -13 27 -48
v -13 27 -49
v -13 39 -48
v -13 39 -49
v 0 9 34
v 0 9 31
v 0 44 34
v 0 44 31
v 2 5 -47
v 2 5 -59
v 2 6 -48
v 2 6 -58
v 2 34 -48
v 2 34 -58
v 2 35 -47
v 2 35 -59
v 5 5 48
v 5 5 32
v 5 6 47
v 5 6 33
v 5 44 47
v 5 44 33
v 5 45 48
v 5 45 32
v 19 45 -50
v 19 45 -51
v 19 46 -50
v 19 46 -51
v 19 47 -50
v 19 47 -51
v 19 48 -50
v 19 48 -51
v 19 49 -50
v 19 49 -51
v 19 50 -50
v 19 50 -51
v 27 5 48
v 27 5 32
v 27 6 47
v 27 6 33
v 27 44 47
v 27 44 33
v 27 45 48
v 27 45 32
v 34 8 34
v 34 8 31
v 34 45 34
v 34 45 31
v 52 9 34
v 52 9 33
v 52 18 33
v 52 18 31
v 52 44 34
v 52 44 31
v -53 26 20
v -53 26 10
v -53 27 19
v -53 27 11
v -53 35 17
v -53 35 13
v -53 36 17
v -53 36 16
v -53 36 14
v -53 36 13
v -53 37 17
v -53 37 16
v -53 37 14
v -53 37 13
v -53 38 17
v -53 38 13
v -53 39 19
v -53 39 11
v -53 40 20
v -53 40 10
v -45 23 34
v -45 23 33
v -45 41 34
v -45 41 33
v -41 30 33
v -41 30 32
v -41 31 33
v -41 31 32
v -40 25 33
v -40 25 32
v -40 26 33
v -40 26 32
v -40 34 33
v -40 34 32
v -40 35 33
v -40 35 32
v -38 28 33
v -38 28 32
v -38 29 33
v -38 29 32
v -38 36 33
v -38 36 32
v -38 37 33
v -38 37 32
v -38 39 33
v -38 39 32
v -38 40 33
v -38 40 32
v -37 32 33
v -37 32 32
v -37 33 33
v -37 33 32
v -35 22 34
v -35 22 33
v -35 23 34
v -35 23 33
v -34 23 34
v -34 23 33
v -34 41 34
v -34 41 33
v -31 9 34
v -31 9 31
v -31 19 32
v -31 19 31
v -31 20 32
v -31 20 31
v -31 44 34
v -31 44 31
v -21 27 -48
v -21 27 -49
v -21 39 -48
v -21 39 -49
v -19 5 -45
v -19 5 -50
v -19 11 -45
v -19 11 -50
v -16 36 -48
v -16 36 -49
v -16 37 -48
v -16 37 -49
v -15 35 -48
v -15 35 -49
v -15 36 -48
v -15 36 -49
v -15 37 -48
v -15 37 -49
v -15 38 -48
v -15 38 -49
v -12 26 -48
v -12 26 -49
v -12 40 -48
v -12 40 -49
v 1 8 34
v 1 8 31
v 1 45 34
v 1 45 31
v 4 5 -47
v 4 5 -59
v 4 6 -48
v 4 6 -58
v 4 34 -48
v 4 34 -58
v 4 35 -47
v 4 35 -59
v 8 5 48
v 8 5 32
v 8 6 47
v 8 6 33
v 8 44 47
v 8 44 33
v 8 45 48
v 8 45 32
v 30 5 48
v 30 5 32
v 30 6 47
v 30 6 33
v 30 44 47
v 30 44 33
v 30 45 48
v 30 45 32
v 32 45 -50
v 32 45 -51
v 32 46 -50
v 32 46 -51
v 32 47 -50
v 32 47 -51
v 32 48 -50
v 32 48 -51
v 32 49 -50
v 32 49 -51
v 32 50 -50
v 32 50 -51
v 35 9 34
v 35 9 31
v 35 44 34
v 35 44 31
v 52 8 33
v 52 8 31
v 52 9 33
v 52 9 31
v 53 8 34
v 53 8 33
v 53 18 33
v 53 18 31
v 53 45 34
v 53 45 31
v 5 5 48
v 5 45 48
v 8 5 48
v 8 45 48
v 27 5 48
v 27 45 48
v 30 5 48
v 30 45 48
v -46 23 34
v -46 41 34
v -45 22 34
v -45 23 34
v -45 41 34
v -35 22 34
v -35 23 34
v -35 41 34
v -34 23 34
v -34 41 34
v -32 8 34
v -32 45 34
v -31 9 34
v -31 44 34
v 0 9 34
v 0 44 34
v 1 8 34
v 1 45 34
v 34 8 34
v 34 45 34
v 35 9 34
v 35 44 34
v 52 9 34
v 52 44 34
v 53 8 34
v 53 45 34
v -44 25 33
v -44 26 33
v -44 28 33
v -44 29 33
v -44 30 33
v -44 31 33
v -44 32 33
v -44 33 33
v -44 34 33
v -44 35 33
v -44 36 33
v -44 37 33
v -42 39 33
v -42 40 33
v -41 30 33
v -41 31 33
v -40 25 33
v -40 26 33
v -40 34 33
v -40 35 33
v -38 28 33
v -38 29 33
v -38 36 33
v -38 37 33
v -38 39 33
v -38 40 33
v -37 32 33
v -37 33 33
v 5 6 33
v 5 44 33
v 8 6 33
v 8 44 33
v 27 6 33
v 27 44 33
v 30 6 33
v 30 44 33
v -54 26 20
v -54 40 20
v -53 26 20
v -53 40 20
v -54 35 17
v -54 36 17
v -54 37 17
v -54 38 17
v -53 35 17
v -53 36 17
v -53 37 17
v -53 38 17
v -54 36 16
v -54 37 16
v -53 36 16
v -53 37 16
v -54 27 11
v -54 39 11
v -53 27 11
v -53 39 11
v -29 5 -45
v -29 11 -45
v -19 5 -45
v -19 11 -45
v 2 5 -47
v 2 35 -47
v 4 5 -47
v 4 35 -47
v -22 26 -48
v -22 40 -48
v -21 27 -48
v -21 39 -48
v -19 35 -48
v -19 36 -48
v -19 37 -48
v -19 38 -48
v -18 36 -48
v -18 37 -48
v -16 36 -48
v -16 37 -48
v -15 35 -48
v -15 36 -48
v -15 37 -48
v -15 38 -48
v -13 27 -48
v -13 39 -48
v -12 26 -48
v -12 40 -48
v 19 45 -50
v 19 46 -50
v 19 47 -50
v 19 48 -50
v 19 49 -50
v 19 50 -50
v 32 45 -50
v 32 46 -50
v 32 47 -50
v 32 48 -50
v 32 49 -50
v 32 50 -50
v 2 6 -58
v 2 34 -58
v 4 6 -58
v 4 34 -58
v 5 6 47
v 5 44 47
v 8 6 47
v 8 44 47
v 27 6 47
v 27 44 47
v 30 6 47
v 30 44 47
v -46 23 33
v -46 41 33
v -45 22 33
v -45 23 33
v -45 41 33
v -35 22 33
v -35 23 33
v -35 41 33
v -34 23 33
v -34 41 33
v 52 8 33
v 52 9 33
v 52 18 33
v 53 8 33
v 53 18 33
v -44 25 32
v -44 26 32
v -44 28 32
v -44 29 32
v -44 30 32
v -44 31 32
v -44 32 32
v -44 33 32
v -44 34 32
v -44 35 32
v -44 36 32
v -44 37 32
v -42 39 32
v -42 40 32
v -41 30 32
v -41 31 32
v -40 25 32
v -40 26 32
v -40 34 32
v -40 35 32
v -38 28 32
v -38 29 32
v -38 36 32
v -38 37 32
v -38 39 32
v -38 40 32
v -37 32 32
v -37 33 32
v -32 19 32
v -32 20 32
v -31 19 32
v -31 20 32
v 5 5 32
v 5 45 32
v 8 5 32
v 8 45 32
v 27 5 32
v 27 45 32
v 30 5 32
v 30 45 32
v -32 8 31
v -32 19 31
v -32 20 31
v -32 45 31
v -31 9 31
v -31 19 31
v -31 20 31
v -31 44 31
v 0 9 31
v 0 44 31
v 1 8 31
v 1 45 31
v 34 8 31
v 34 45 31
v 35 9 31
v 35 44 31
v 52 8 31
v 52 9 31
v 52 18 31
v 52 44 31
v 53 18 31
v 53 45 31
v -54 27 19
v -54 39 19
v -53 27 19
v -53 39 19
v -54 36 14
v -54 37 14
v -53 36 14
v -53 37 14
v -54 35 13
v -54 36 13
v -54 37 13
v -54 38 13
v -53 35 13
v -53 36 13
v -53 37 13
v -53 38 13
v -54 26 10
v -54 40 10
v -53 26 10
v -53 40 10
v 2 6 -48
v 2 34 -48
v 4 6 -48
v 4 34 -48
v -22 26 -49
v -22 40 -49
v -21 27 -49
v -21 39 -49
v -19 35 -49
v -19 36 -49
v -19 37 -49
v -19 38 -49
v -18 36 -49
v -18 37 -49
v -16 36 -49
v -16 37 -49
v -15 35 -49
v -15 36 -49
v -15 37 -49
v -15 38 -49
v -13 27 -49
v -13 39 -49
v -12 26 -49
v -12 40 -49
v -29 5 -50
v -29 11 -50
v -19 5 -50
v -19 11 -50
v 19 45 -51
v 19 46 -51
v 19 47 -51
v 19 48 -51
v 19 49 -51
v 19 50 -51
v 32 45 -51
v 32 46 -51
v 32 47 -51
v 32 48 -51
v 32 49 -51
v 32 50 -51
v 2 5 -59
v 2 35 -59
v 4 5 -59
v 4 35 -59
v 5 5 48
v 8 5 48
v 27 5 48
v 30 5 48
v 5 5 32
v 8 5 32
v 27 5 32
v 30 5 32
v -29 5 -45
v -19 5 -45
v 2 5 -47
v 4 5 -47
v -29 5 -50
v -19 5 -50
v 2 5 -59
v 4 5 -59
v -32 8 34
v 1 8 34
v 34 8 34
v 53 8 34
v 52 8 33
v 53 8 33
v -32 8 31
v 1 8 31
v 34 8 31
v 52 8 31
v 52 18 33
v 53 18 33
v 52 18 31
v 53 18 31
v -32 20 32
v -31 20 32
v -32 20 31
v -31 20 31
v -45 22 34
v -35 22 34
v -45 22 33
v -35 22 33
v -46 23 34
v -45 23 34
v -35 23 34
v -34 23 34
v -46 23 33
v -45 23 33
v -35 23 33
v -34 23 33
v -44 25 33
v -40 25 33
v -44 25 32
v -40 25 32
v -54 26 20
v -53 26 20
v -54 26 10
v -53 26 10
v -22 26 -48
v -12 26 -48
v -22 26 -49
v -12 26 -49
v -44 28 33
v -38 28 33
v -44 28 32
v -38 28 32
v -44 30 33
v -41 30 33
v -44 30 32
v -41 30 32
v -44 32 33
v -37 32 33
v -44 32 32
v -37 32 32
v -44 34 33
v -40 34 33
v -44 34 32
v -40 34 32
v 2 34 -48
v 4 34 -48
v 2 34 -58
v 4 34 -58
v -54 35 17
v -53 35 17
v -54 35 13
v -53 35 13
v -19 35 -48
v -15 35 -48
v -19 35 -49
v -15 35 -49
v -44 36 33
v -38 36 33
v -44 36 32
v -38 36 32
v -54 37 17
v -53 37 17
v -54 37 16
v -53 37 16
v -54 37 14
v -53 37 14
v -54 37 13
v -53 37 13
v -19 37 -48
v -18 37 -48
v -16 37 -48
v -15 37 -48
v -19 37 -49
v -18 37 -49
v -16 37 -49
v -15 37 -49
v -42 39 33
v -38 39 33
v -42 39 32
v -38 39 32
v -54 39 19
v -53 39 19
v -54 39 11
v -53 39 11
v -21 39 -48
v -13 39 -48
v -21 39 -49
v -13 39 -49
v 5 44 47
v 8 44 47
v 27 44 47
v 30 44 47
v -31 44 34
v 0 44 34
v 35 44 34
v 52 44 34
v 5 44 33
v 8 44 33
v 27 44 33
v 30 44 33
v -31 44 31
v 0 44 31
v 35 44 31
v 52 44 31
v 19 45 -50
v 32 45 -50
v 19 45 -51
v 32 45 -51
v 19 47 -50
v 32 47 -50
v 19 47 -51
v 32 47 -51
v 19 49 -50
v 32 49 -50
v 19 49 -51
v 32 49 -51
v 5 6 47
v 8 6 47
v 27 6 47
v 30 6 47
v 5 6 33
v 8 6 33
v 27 6 33
v 30 6 33
v 2 6 -48
v 4 6 -48
v 2 6 -58
v 4 6 -58
v -31 9 34
v 0 9 34
v 35 9 34
v 52 9 34
v 52 9 33
v -31 9 31
v 0 9 31
v 35 9 31
v 52 9 31
v -29 11 -45
v -19 11 -45
v -29 11 -50
v -19 11 -50
v -32 19 32
v -31 19 32
v -32 19 31
v -31 19 31
v -45 23 34
v -35 23 34
v -45 23 33
v -35 23 33
v -44 26 33
v -40 26 33
v -44 26 32
v -40 26 32
v -54 27 19
v -53 27 19
v -54 27 11
v -53 27 11
v -21 27 -48
v -13 27 -48
v -21 27 -49
v -13 27 -49
v -44 29 33
v -38 29 33
v -44 29 32
v -38 29 32
v -44 31 33
v -41 31 33
v -44 31 32
v -41 31 32
v -44 33 33
v -37 33 33
v -44 33 32
v -37 33 32
v -44 35 33
v -40 35 33
v -44 35 32
v -40 35 32
v 2 35 -47
v 4 35 -47
v 2 35 -59
v 4 35 -59
v -54 36 17
v -53 36 17
v -54 36 16
v -53 36 16
v -54 36 14
v -53 36 14
v -54 36 13
v -53 36 13
v -19 36 -48
v -18 36 -48
v -16 36 -48
v -15 36 -48
v -19 36 -49
v -18 36 -49
v -16 36 -49
v -15 36 -49
v -44 37 33
v -38 37 33
v -44 37 32
v -38 37 32
v -54 38 17
v -53 38 17
v -54 38 13
v -53 38 13
v -19 38 -48
v -15 38 -48
v -19 38 -49
v -15 38 -49
v -42 40 33
v -38 40 33
v -42 40 32
v -38 40 32
v -54 40 20
v -53 40 20
v -54 40 10
v -53 40 10
v -22 40 -48
v -12 40 -48
v -22 40 -49
v -12 40 -49
v -46 41 34
v -45 41 34
v -35 41 34
v -34 41 34
v -46 41 33
v -45 41 33
v -35 41 33
v -34 41 33
v 5 45 48
v 8 45 48
v 27 45 48
v 30 45 48
v -32 45 34
v 1 45 34
v 34 45 34
v 53 45 34
v 5 45 32
v 8 45 32
v 27 45 32
v 30 45 32
v -32 45 31
v 1 45 31
v 34 45 31
v 53 45 31
v 19 46 -50
v 32 46 -50
v 19 46 -51
v 32 46 -51
v 19 48 -50
v 32 48 -50
v 19 48 -51
v 32 48 -51
v 19 50 -50
v 32 50 -50
v 19 50 -51
v 32 50 -51

# faces
f 3/1/1 2/1/1 1/1/1
f 4/1/1 2/1/1 3/1/1
f 7/2/1 6/2/1 5/2/1
f 8/2/1 6/2/1 7/2/1
f 9/2/1 6/2/1 8/2/1
f 10/2/1 6/2/1 9/2/1
f 12/2/1 9/2/1 8/2/1
f 13/2/1 9/2/1 12/2/1
f 15/2/1 12/2/1 11/2/1
f 15/2/1 14/2/1 13/2/1
f 15/2/1 13/2/1 12/2/1
f 16/2/1 14/2/1 15/2/1
f 17/1/1 3/1/1 1/1/1
f 18/1/1 2/1/1 4/1/1
f 19/1/1 17/1/1 1/1/1
f 19/1/1 18/1/1 17/1/1
f 20/1/1 2/1/1 18/1/1
f 20/1/1 18/1/1 19/1/1
f 23/3/1 22/3/1 21/3/1
f 24/3/1 22/3/1 23/3/1
f 27/3/1 26/3/1 25/3/1
f 28/3/1 26/3/1 27/3/1
f 31/1/1 30/1/1 29/1/1
f 32/1/1 30/1/1 31/1/1
f 35/1/1 34/1/1 33/1/1
f 36/1/1 34/1/1 35/1/1
f 39/1/1 38/1/1 37/1/1
f 40/1/1 38/1/1 39/1/1
f 43/1/1 42/1/1 41/1/1
f 44/1/1 42/1/1 43/1/1
f 47/1/1 46/1/1 45/1/1
f 48/1/1 46/1/1 47/1/1
f 51/1/1 50/1/1 49/1/1
f 52/1/1 50/1/1 51/1/1
f 55/1/1 54/1/1 53/1/1
f 56/1/1 54/1/1 55/1/1
f 59/3/1 58/3/1 57/3/1
f 60/3/1 58/3/1 59/3/1
f 63/3/1 62/3/1 61/3/1
f 64/3/1 62/3/1 63/3/1
f 65/3/1 63/3/1 61/3/1
f 67/3/1 65/3/1 61/3/1
f 67/3/1 66/3/1 65/3/1
f 68/3/1 66/3/1 67/3/1
f 71/2/1 70/2/1 69/2/1
f 72/2/1 70/2/1 71/2/1
f 75/1/1 74/1/1 73/1/1
f 76/1/1 74/1/1 75/1/1
f 79/2/1 78/2/1 77/2/1
f 80/2/1 78/2/1 79/2/1
f 83/2/1 82/2/1 81/2/1
f 84/2/1 82/2/1 83/2/1
f 87/2/1 86/2/1 85/2/1
f 88/2/1 86/2/1 87/2/1
f 91/1/1 90/1/1 89/1/1
f 92/1/1 90/1/1 91/1/1
f 95/3/1 94/3/1 93/3/1
f 96/3/1 94/3/1 95/3/1
f 99/3/1 98/3/1 97/3/1
f 100/3/1 98/3/1 99/3/1
f 101/3/1 99/3/1 97/3/1
f 102/3/1 98/3/1 100/3/1
f 103/3/1 101/3/1 97/3/1
f 103/3/1 102/3/1 101/3/1
f 104/3/1 98/3/1 102/3/1
f 104/3/1 102/3/1 103/3/1
f 107/3/1 106/3/1 105/3/1
f 108/3/1 106/3/1 107/3/1
f 109/3/1 107/3/1 105/3/1
f 110/3/1 106/3/1 108/3/1
f 111/3/1 109/3/1 105/3/1
f 111/3/1 110/3/1 109/3/1
f 112/3/1 106/3/1 110/3/1
f 112/3/1 110/3/1 111/3/1
f 115/1/1 114/1/1 113/1/1
f 116/1/1 114/1/1 115/1/1
f 119/1/1 118/1/1 117/1/1
f 120/1/1 118/1/1 119/1/1
f 123/1/1 122/1/1 121/1/1
f 124/1/1 122/1/1 123/1/1
f 127/3/1 126/3/1 125/3/1
f 128/3/1 126/3/1 127/3/1
f 129/3/1 127/3/1 125/3/1
f 130/3/1 126/3/1 128/3/1
f 131/3/1 129/3/1 125/3/1
f 131/3/1 130/3/1 129/3/1
f 132/3/1 126/3/1 130/3/1
f 132/3/1 130/3/1 131/3/1
f 135/3/1 134/3/1 133/3/1
f 136/3/1 134/3/1 135/3/1
f 139/3/1 138/3/1 137/3/1
f 141/3/1 139/3/1 137/3/1
f 141/3/1 140/3/1 139/3/1
f 142/3/1 140/3/1 141/3/1
f 143/1/2 144/1/2 145/1/2
f 145/1/2 144/1/2 146/1/2
f 147/2/2 148/2/2 149/2/2
f 149/2/2 148/2/2 150/2/2
f 150/2/2 148/2/2 151/2/2
f 151/2/2 148/2/2 152/2/2
f 150/2/2 151/2/2 154/2/2
f 154/2/2 151/2/2 155/2/2
f 153/2/2 154/2/2 157/2/2
f 155/2/2 156/2/2 157/2/2
f 154/2/2 155/2/2 157/2/2
f 157/2/2 156/2/2 158/2/2
f 143/1/2 145/1/2 159/1/2
f 146/1/2 144/1/2 160/1/2
f 143/1/2 159/1/2 161/1/2
f 159/1/2 160/1/2 161/1/2
f 160/1/2 144/1/2 162/1/2
f 161/1/2 160/1/2 162/1/2
f 163/3/2 164/3/2 165/3/2
f 165/3/2 164/3/2 166/3/2
f 167/1/2 168/1/2 169/1/2
f 169/1/2 168/1/2 170/1/2
f 171/1/2 172/1/2 173/1/2
f 173/1/2 172/1/2 174/1/2
f 175/1/2 176/1/2 177/1/2
f 177/1/2 176/1/2 178/1/2
f 179/1/2 180/1/2 181/1/2
f 181/1/2 180/1/2 182/1/2
f 183/1/2 184/1/2 185/1/2
f 185/1/2 184/1/2 186/1/2
f 187/1/2 188/1/2 189/1/2
f 189/1/2 188/1/2 190/1/2
f 191/1/2 192/1/2 193/1/2
f 193/1/2 192/1/2 194/1/2
f 195/3/2 196/3/2 197/3/2
f 197/3/2 196/3/2 198/3/2
f 199/3/2 200/3/2 201/3/2
f 201/3/2 200/3/2 202/3/2
f 203/3/2 204/3/2 205/3/2
f 205/3/2 204/3/2 206/3/2
f 203/3/2 205/3/2 207/3/2
f 203/3/2 207/3/2 209/3/2
f 207/3/2 208/3/2 209/3/2
f 209/3/2 208/3/2 210/3/2
f 211/1/2 212/1/2 213/1/2
f 213/1/2 212/1/2 214/1/2
f 215/2/2 216/2/2 217/2/2
f 217/2/2 216/2/2 218/2/2
f 219/2/2 220/2/2 221/2/2
f 221/2/2 220/2/2 222/2/2
f 223/2/2 224/2/2 225/2/2
f 225/2/2 224/2/2 226/2/2
f 227/2/2 228/2/2 229/2/2
f 229/2/2 228/2/2 230/2/2
f 231/1/2 232/1/2 233/1/2
f 233/1/2 232/1/2 234/1/2
f 235/3/2 236/3/2 237/3/2
f 237/3/2 236/3/2 238/3/2
f 239/3/2 240/3/2 241/3/2
f 241/3/2 240/3/2 242/3/2
f 239/3/2 241/3/2 243/3/2
f 242/3/2 240/3/2 244/3/2
f 239/3/2 243/3/2 245/3/2
f 243/3/2 244/3/2 245/3/2
f 244/3/2 240/3/2 246/3/2
f 245/3/2 244/3/2 246/3/2
f 247/3/2 248/3/2 249/3/2
f 249/3/2 248/3/2 250/3/2
f 247/3/2 249/3/2 251/3/2
f 250/3/2 248/3/2 252/3/2
f 247/3/2 251/3/2 253/3/2
f 251/3/2 252/3/2 253/3/2
f 252/3/2 248/3/2 254/3/2
f 253/3/2 252/3/2 254/3/2
f 255/3/2 256/3/2 257/3/2
f 257/3/2 256/3/2 258/3/2
f 255/3/2 257/3/2 259/3/2
f 258/3/2 256/3/2 260/3/2
f 255/3/2 259/3/2 261/3/2
f 259/3/2 260/3/2 261/3/2
f 260/3/2 256/3/2 262/3/2
f 261/3/2 260/3/2 262/3/2
f 263/1/2 264/1/2 265/1/2
f 265/1/2 264/1/2 266/1/2
f 267/1/2 268/1/2 269/1/2
f 269/1/2 268/1/2 270/1/2
f 271/1/2 272/1/2 273/1/2
f 273/1/2 272/1/2 274/1/2
f 275/3/2 276/3/2 277/3/2
f 277/3/2 276/3/2 278/3/2
f 279/3/2 280/3/2 281/3/2
f 281/3/2 280/3/2 282/3/2
f 283/3/2 284/3/2 285/3/2
f 283/3/2 285/3/2 287/3/2
f 285/3/2 286/3/2 287/3/2
f 287/3/2 286/3/2 288/3/2
f 291/3/3 290/3/3 289/3/3
f 292/3/3 290/3/3 291/3/3
f 295/3/3 294/3/3 293/3/3
f 296/3/3 294/3/3 295/3/3
f 300/3/3 298/3/3 297/3/3
f 301/3/3 298/3/3 300/3/3
f 302/3/3 300/3/3 299/3/3
f 303/3/3 300/3/3 302/3/3
f 305/3/3 304/3/3 303/3/3
f 306/3/3 304/3/3 305/3/3
f 309/3/3 308/3/3 307/3/3
f 310/3/3 308/3/3 309/3/3
f 311/3/3 309/3/3 307/3/3
f 312/3/3 308/3/3 310/3/3
f 313/3/3 311/3/3 307/3/3
f 313/3/3 312/3/3 311/3/3
f 314/3/3 308/3/3 312/3/3
f 314/3/3 312/3/3 313/3/3
f 317/3/3 316/3/3 315/3/3
f 318/3/3 316/3/3 317/3/3
f 319/3/3 317/3/3 315/3/3
f 320/3/3 316/3/3 318/3/3
f 321/3/3 319/3/3 315/3/3
f 321/3/3 320/3/3 319/3/3
f 322/3/3 316/3/3 320/3/3
f 322/3/3 320/3/3 321/3/3
f 337/1/3 328/1/3 327/1/3
f 338/1/3 328/1/3 337/1/3
f 339/1/3 324/1/3 323/1/3
f 340/1/3 324/1/3 339/1/3
f 341/1/3 332/1/3 331/1/3
f 342/1/3 332/1/3 341/1/3
f 343/1/3 326/1/3 325/1/3
f 344/1/3 326/1/3 343/1/3
f 345/1/3 334/1/3 333/1/3
f 346/1/3 334/1/3 345/1/3
f 347/1/3 336/1/3 335/1/3
f 348/1/3 336/1/3 347/1/3
f 349/1/3 330/1/3 329/1/3
f 350/1/3 330/1/3 349/1/3
f 353/3/3 352/3/3 351/3/3
f 354/3/3 352/3/3 353/3/3
f 357/3/3 356/3/3 355/3/3
f 358/3/3 356/3/3 357/3/3
f 361/1/3 360/1/3 359/1/3
f 362/1/3 360/1/3 361/1/3
f 367/2/3 364/2/3 363/2/3
f 368/2/3 364/2/3 367/2/3
f 369/2/3 366/2/3 365/2/3
f 370/2/3 366/2/3 369/2/3
f 373/2/3 372/2/3 371/2/3
f 374/2/3 372/2/3 373/2/3
f 377/1/3 376/1/3 375/1/3
f 378/1/3 376/1/3 377/1/3
f 381/2/3 380/2/3 379/2/3
f 382/2/3 380/2/3 381/2/3
f 385/3/3 384/3/3 383/3/3
f 386/3/3 384/3/3 385/3/3
f 389/1/3 388/1/3 387/1/3
f 390/1/3 388/1/3 389/1/3
f 395/2/3 392/2/3 391/2/3
f 396/2/3 394/2/3 393/2/3
f 397/2/3 395/2/3 391/2/3
f 397/2/3 396/2/3 395/2/3
f 398/2/3 394/2/3 396/2/3
f 398/2/3 396/2/3 397/2/3
f 399/2/3 397/2/3 391/2/3
f 400/2/3 397/2/3 399/2/3
f 401/2/3 394/2/3 398/2/3
f 402/2/3 394/2/3 401/2/3
f 403/1/3 389/1/3 387/1/3
f 404/1/3 388/1/3 390/1/3
f 405/1/3 403/1/3 387/1/3
f 405/1/3 404/1/3 403/1/3
f 406/1/3 388/1/3 404/1/3
f 406/1/3 404/1/3 405/1/3
f 413/1/3 408/1/3 407/1/3
f 414/1/3 408/1/3 413/1/3
f 415/1/3 410/1/3 409/1/3
f 416/1/3 410/1/3 415/1/3
f 417/1/3 412/1/3 411/1/3
f 418/1/3 412/1/3 417/1/3
f 421/3/3 420/3/3 419/3/3
f 422/3/3 420/3/3 421/3/3
f 423/3/4 424/3/4 425/3/4
f 425/3/4 424/3/4 426/3/4
f 427/3/4 428/3/4 429/3/4
f 429/3/4 428/3/4 430/3/4
f 431/3/4 432/3/4 434/3/4
f 434/3/4 432/3/4 435/3/4
f 433/3/4 434/3/4 436/3/4
f 436/3/4 434/3/4 437/3/4
f 437/3/4 438/3/4 439/3/4
f 439/3/4 438/3/4 440/3/4
f 441/3/4 442/3/4 444/3/4
f 442/3/4 443/3/4 444/3/4
f 444/3/4 443/3/4 445/3/4
f 450/1/4 451/1/4 460/1/4
f 460/1/4 451/1/4 461/1/4
f 446/1/4 447/1/4 462/1/4
f 462/1/4 447/1/4 463/1/4
f 454/1/4 455/1/4 464/1/4
f 464/1/4 455/1/4 465/1/4
f 448/1/4 449/1/4 466/1/4
f 466/1/4 449/1/4 467/1/4
f 456/1/4 457/1/4 468/1/4
f 468/1/4 457/1/4 469/1/4
f 458/1/4 459/1/4 470/1/4
f 470/1/4 459/1/4 471/1/4
f 452/1/4 453/1/4 472/1/4
f 472/1/4 453/1/4 473/1/4
f 474/3/4 475/3/4 476/3/4
f 476/3/4 475/3/4 477/3/4
f 478/3/4 479/3/4 480/3/4
f 480/3/4 479/3/4 481/3/4
f 482/3/4 483/3/4 484/3/4
f 484/3/4 483/3/4 485/3/4
f 486/3/4 487/3/4 490/3/4
f 490/3/4 487/3/4 491/3/4
f 488/3/4 489/3/4 492/3/4
f 492/3/4 489/3/4 493/3/4
f 486/3/4 490/3/4 494/3/4
f 493/3/4 489/3/4 495/3/4
f 486/3/4 494/3/4 496/3/4
f 494/3/4 495/3/4 496/3/4
f 495/3/4 489/3/4 497/3/4
f 496/3/4 495/3/4 497/3/4
f 498/3/4 499/3/4 500/3/4
f 500/3/4 499/3/4 501/3/4
f 498/3/4 500/3/4 502/3/4
f 502/3/4 500/3/4 503/3/4
f 501/3/4 499/3/4 505/3/4
f 504/3/4 505/3/4 506/3/4
f 505/3/4 499/3/4 507/3/4
f 506/3/4 505/3/4 507/3/4
f 508/1/4 509/1/4 510/1/4
f 510/1/4 509/1/4 511/1/4
f 512/2/4 513/2/4 514/2/4
f 514/2/4 513/2/4 515/2/4
f 516/2/4 517/2/4 520/2/4
f 520/2/4 517/2/4 521/2/4
f 518/2/4 519/2/4 522/2/4
f 522/2/4 519/2/4 523/2/4
f 524/1/4 525/1/4 526/1/4
f 526/1/4 525/1/4 527/1/4
f 528/3/4 529/3/4 530/3/4
f 530/3/4 529/3/4 531/3/4
f 532/1/4 533/1/4 534/1/4
f 534/1/4 533/1/4 535/1/4
f 536/2/4 537/2/4 540/2/4
f 538/2/4 539/2/4 541/2/4
f 536/2/4 540/2/4 542/2/4
f 540/2/4 541/2/4 542/2/4
f 541/2/4 539/2/4 543/2/4
f 542/2/4 541/2/4 543/2/4
f 536/2/4 542/2/4 544/2/4
f 544/2/4 542/2/4 545/2/4
f 543/2/4 539/2/4 546/2/4
f 546/2/4 539/2/4 547/2/4
f 532/1/4 534/1/4 548/1/4
f 535/1/4 533/1/4 549/1/4
f 532/1/4 548/1/4 550/1/4
f 548/1/4 549/1/4 550/1/4
f 549/1/4 533/1/4 551/1/4
f 550/1/4 549/1/4 551/1/4
f 552/2/4 553/2/4 554/2/4
f 554/2/4 553/2/4 555/2/4
f 556/1/4 557/1/4 562/1/4
f 562/1/4 557/1/4 563/1/4
f 558/1/4 559/1/4 564/1/4
f 564/1/4 559/1/4 565/1/4
f 560/1/4 561/1/4 566/1/4
f 566/1/4 561/1/4 567/1/4
f 568/3/4 569/3/4 570/3/4
f 570/3/4 569/3/4 571/3/4
f 576/3/5 573/3/5 572/3/5
f 577/3/5 573/3/5 576/3/5
f 578/3/5 575/3/5 574/3/5
f 579/3/5 575/3/5 578/3/5
f 584/2/5 581/2/5 580/2/5
f 585/2/5 581/2/5 584/2/5
f 586/3/5 583/3/5 582/3/5
f 587/3/5 583/3/5 586/3/5
f 592/3/5 591/3/5 590/3/5
f 593/3/5 591/3/5 592/3/5
f 594/3/5 589/3/5 588/3/5
f 595/3/5 589/3/5 594/3/5
f 596/3/5 592/3/5 590/3/5
f 597/3/5 592/3/5 596/3/5
f 600/3/5 599/3/5 598/3/5
f 601/3/5 599/3/5 600/3/5
f 604/3/5 603/3/5 602/3/5
f 605/3/5 603/3/5 604/3/5
f 608/3/5 607/3/5 606/3/5
f 609/3/5 607/3/5 608/3/5
f 614/3/5 611/3/5 610/3/5
f 615/3/5 611/3/5 614/3/5
f 616/3/5 613/3/5 612/3/5
f 617/3/5 613/3/5 616/3/5
f 620/1/5 619/1/5 618/1/5
f 621/1/5 619/1/5 620/1/5
f 624/1/5 623/1/5 622/1/5
f 625/1/5 623/1/5 624/1/5
f 628/1/5 627/1/5 626/1/5
f 629/1/5 627/1/5 628/1/5
f 632/1/5 631/1/5 630/1/5
f 633/1/5 631/1/5 632/1/5
f 636/1/5 635/1/5 634/1/5
f 637/1/5 635/1/5 636/1/5
f 640/1/5 639/1/5 638/1/5
f 641/1/5 639/1/5 640/1/5
f 644/1/5 643/1/5 642/1/5
f 645/1/5 643/1/5 644/1/5
f 648/3/5 647/3/5 646/3/5
f 649/3/5 647/3/5 648/3/5
f 652/2/5 651/2/5 650/2/5
f 653/2/5 651/2/5 652/2/5
f 656/2/5 655/2/5 654/2/5
f 657/2/5 655/2/5 656/2/5
f 660/1/5 659/1/5 658/1/5
f 661/1/5 659/1/5 660/1/5
f 664/2/5 663/2/5 662/2/5
f 665/2/5 663/2/5 664/2/5
f 668/2/5 667/2/5 666/2/5
f 669/2/5 667/2/5 668/2/5
f 674/2/5 671/2/5 670/2/5
f 675/2/5 671/2/5 674/2/5
f 676/2/5 673/2/5 672/2/5
f 677/2/5 673/2/5 676/2/5
f 680/1/5 679/1/5 678/1/5
f 681/1/5 679/1/5 680/1/5
f 684/1/5 683/1/5 682/1/5
f 685/1/5 683/1/5 684/1/5
f 688/1/5 687/1/5 686/1/5
f 689/1/5 687/1/5 688/1/5
f 698/3/5 691/3/5 690/3/5
f 699/3/5 691/3/5 698/3/5
f 700/3/5 693/3/5 692/3/5
f 701/3/5 693/3/5 700/3/5
f 702/3/5 695/3/5 694/3/5
f 703/3/5 695/3/5 702/3/5
f 704/3/5 697/3/5 696/3/5
f 705/3/5 697/3/5 704/3/5
f 708/1/5 707/1/5 706/1/5
f 709/1/5 707/1/5 708/1/5
f 712/1/5 711/1/5 710/1/5
f 713/1/5 711/1/5 712/1/5
f 716/1/5 715/1/5 714/1/5
f 717/1/5 715/1/5 716/1/5
f 718/3/6 719/3/6 722/3/6
f 722/3/6 719/3/6 723/3/6
f 720/3/6 721/3/6 724/3/6
f 724/3/6 721/3/6 725/3/6
f 726/3/6 727/3/6 728/3/6
f 728/3/6 727/3/6 729/3/6
f 732/3/6 733/3/6 734/3/6
f 730/3/6 731/3/6 735/3/6
f 735/3/6 731/3/6 736/3/6
f 732/3/6 734/3/6 737/3/6
f 737/3/6 734/3/6 738/3/6
f 739/2/6 740/2/6 741/2/6
f 741/2/6 740/2/6 742/2/6
f 743/3/6 744/3/6 745/3/6
f 745/3/6 744/3/6 746/3/6
f 747/3/6 748/3/6 749/3/6
f 749/3/6 748/3/6 750/3/6
f 751/1/6 752/1/6 753/1/6
f 753/1/6 752/1/6 754/1/6
f 755/1/6 756/1/6 757/1/6
f 757/1/6 756/1/6 758/1/6
f 759/1/6 760/1/6 761/1/6
f 761/1/6 760/1/6 762/1/6
f 763/1/6 764/1/6 765/1/6
f 765/1/6 764/1/6 766/1/6
f 767/1/6 768/1/6 769/1/6
f 769/1/6 768/1/6 770/1/6
f 771/1/6 772/1/6 773/1/6
f 773/1/6 772/1/6 774/1/6
f 775/1/6 776/1/6 777/1/6
f 777/1/6 776/1/6 778/1/6
f 779/3/6 780/3/6 781/3/6
f 781/3/6 780/3/6 782/3/6
f 783/2/6 784/2/6 785/2/6
f 785/2/6 784/2/6 786/2/6
f 787/2/6 788/2/6 789/2/6
f 789/2/6 788/2/6 790/2/6
f 791/2/6 792/2/6 795/2/6
f 795/2/6 792/2/6 796/2/6
f 793/2/6 794/2/6 797/2/6
f 797/2/6 794/2/6 798/2/6
f 799/1/6 800/1/6 801/1/6
f 801/1/6 800/1/6 802/1/6
f 803/2/6 804/2/6 805/2/6
f 805/2/6 804/2/6 806/2/6
f 807/2/6 808/2/6 809/2/6
f 809/2/6 808/2/6 810/2/6
f 811/1/6 812/1/6 813/1/6
f 813/1/6 812/1/6 814/1/6
f 815/1/6 816/1/6 817/1/6
f 817/1/6 816/1/6 818/1/6
f 819/1/6 820/1/6 821/1/6
f 821/1/6 820/1/6 822/1/6
f 823/3/6 824/3/6 827/3/6
f 827/3/6 824/3/6 828/3/6
f 825/3/6 826/3/6 829/3/6
f 829/3/6 826/3/6 830/3/6
f 831/3/6 832/3/6 839/3/6
f 839/3/6 832/3/6 840/3/6
f 833/3/6 834/3/6 841/3/6
f 841/3/6 834/3/6 842/3/6
f 835/3/6 836/3/6 843/3/6
f 843/3/6 836/3/6 844/3/6
f 837/3/6 838/3/6 845/3/6
f 845/3/6 838/3/6 846/3/6
f 847/1/6 848/1/6 849/1/6
f 849/1/6 848/1/6 850/1/6
f 851/1/6 852/1/6 853/1/6
f 853/1/6 852/1/6 854/1/6
f 855/1/6 856/1/6 857/1/6
f 857/1/6 856/1/6 858/1/6
